# This file uses centimeters as units for non-parametric coordinates.

mtllib puerta-2a.mtl
g default
v -2.064529 5.653151 0.296822
v -2.064529 5.653151 -0.296825
v -3.542496 -5.653151 -0.296825
v -3.542496 -5.653151 0.296822
v -4.998596 -2.133930 0.296822
v -4.998596 -2.133930 -0.296825
v -3.230469 2.558711 0.296822
v -3.230469 2.558711 -0.296825
v 2.004944 -2.133930 0.296822
v 4.998596 2.218776 0.296822
v 4.998596 2.218776 -0.296825
v 2.004944 -2.133930 -0.296825
v 3.426437 -5.653151 -0.296825
v 3.426437 -5.653151 0.296822
v 3.442581 5.653151 0.296822
v 3.442581 5.653151 -0.296825
v 3.020294 -5.653151 0.296822
v 1.596786 -2.133930 0.296822
v 4.519012 2.238587 0.296822
v 3.121628 5.653151 0.296822
v 3.121628 5.653151 -0.296825
v 4.519012 2.238587 -0.296825
v 1.596786 -2.133930 -0.296825
v 3.020294 -5.653151 -0.296825
v 3.020294 -5.653151 0.501141
v 3.426437 -5.653151 0.501141
v 2.004944 -2.133930 0.501141
v 1.596786 -2.133930 0.501141
v 4.519012 2.238587 0.501141
v 4.998596 2.218776 0.501141
v 3.121628 5.653151 0.501141
v 3.442581 5.653151 0.501141
v 3.121628 5.653151 -0.501141
v 4.519012 2.238587 -0.501141
v 3.442581 5.653151 -0.501141
v 4.998596 2.218776 -0.501141
v 1.596786 -2.133930 -0.501141
v 2.004944 -2.133930 -0.501141
v 3.426437 -5.653151 -0.501141
v 3.020294 -5.653151 -0.501141
vt 1.660802 -0.838552
vt 1.759003 -0.838552
vt 1.759003 -0.062289
vt 1.660802 -0.062289
vt 1.660802 -1.420706
vt 1.759003 -1.420706
vt 1.759003 0.449597
vt 1.660802 0.449597
vt 1.823066 0.449597
vt 1.823066 -0.118522
vt 1.921266 -0.118522
vt 1.921266 0.449597
vt 1.789266 0.449597
vt 1.789266 -0.118522
vt 1.823066 -0.838552
vt 1.921266 -0.838552
vt 1.955063 -0.118522
vt 1.955063 0.449597
vt 1.789266 -0.838552
vt 1.823066 -1.420706
vt 1.921266 -1.420706
vt 1.955063 -0.838552
vt 1.789266 -1.420706
vt 1.955063 -1.420706
vt 1.316562 1.771498
vt 1.316562 2.336339
vt 1.282763 2.336339
vt 1.282763 1.771498
vt 1.316562 1.048190
vt 1.282763 1.048190
vt 1.316562 0.466037
vt 1.282763 0.466037
vt 1.223687 1.618845
vt 1.125488 1.618845
vt 1.125488 0.533221
vt 1.223687 0.533221
vt 1.125488 0.466037
vt 1.223687 0.466037
vt 1.091691 0.533221
vt 1.091691 0.466037
vt 1.257488 0.466037
vt 1.257488 0.533221
vt 0.934424 1.377028
vt 0.934424 0.519128
vt 1.032623 0.519128
vt 1.032623 1.377028
vt 0.934424 0.466034
vt 1.032623 0.466034
vt 0.900623 0.519128
vt 0.900623 0.466034
vt 1.066420 0.466034
vt 1.066420 0.519128
vt -1.259167 -0.062289
vt -1.551650 -0.838552
vt -0.460635 -0.838552
vt 0.022764 -0.115245
vt -1.310783 -1.420706
vt -0.225159 -1.420706
vt -1.066295 0.449597
vt -0.208395 0.449597
vt 0.347458 -0.908822
vt 1.629389 -0.855867
vt 1.145990 -0.132560
vt 0.054975 -0.132560
vt 0.540330 -1.420708
vt 1.398230 -1.420708
vt 1.381466 0.449593
vt 0.295842 0.449593
vt 1.884310 1.030879
vt 1.653151 0.466037
vt 1.706244 0.466037
vt 1.963643 1.034155
vt 1.400911 1.754185
vt 1.468428 1.754185
vt 1.703570 2.336339
vt 1.636387 2.336339
vt 1.060561 -0.666862
vt 1.060561 -2.591220
vt 1.172285 -2.591220
vt 1.172285 -0.666862
vt 1.060561 1.724090
vt 1.172285 1.724090
vt 1.060561 3.591220
vt 1.172285 3.591220
vt -0.067459 -2.591220
vt 0.154627 -2.591220
vt -0.622665 -0.666862
vt -0.845854 -0.666862
vt 0.752060 1.724090
vt 1.014304 1.713258
vt -0.012048 3.591220
vt 0.163453 3.591220
vn -0.000000 0.000000 1.000000
vn 0.000000 0.000000 1.000000
vn 0.000000 0.000000 1.000000
vn -0.000000 0.000000 1.000000
vn -0.000001 0.000000 -1.000000
vn -0.000001 0.000000 -1.000000
vn -0.000001 0.000000 -1.000000
vn -0.000001 0.000000 -1.000000
vn -0.935778 0.352590 0.000000
vn -0.935778 0.352590 0.000000
vn -0.935778 0.352590 0.000000
vn -0.935778 0.352590 0.000000
vn -0.924029 -0.382324 0.000000
vn -0.924029 -0.382324 0.000000
vn -0.924029 -0.382324 0.000000
vn -0.924029 -0.382324 0.000000
vn 0.000000 -1.000000 0.000000
vn 0.000000 -1.000000 0.000000
vn 0.000000 -1.000000 0.000000
vn 0.000000 -1.000000 0.000000
vn 0.000000 1.000000 0.000000
vn 0.000000 1.000000 0.000000
vn 0.000000 1.000000 0.000000
vn 0.000000 1.000000 0.000000
vn 0.000000 0.000000 1.000000
vn 0.000000 0.000000 1.000000
vn 0.000000 0.000000 -1.000000
vn 0.000000 0.000000 -1.000000
vn -0.000001 0.000000 1.000000
vn -0.000001 0.000000 1.000000
vn -0.935778 0.352589 0.000000
vn -0.935778 0.352589 0.000000
vn -0.000001 0.000000 -1.000000
vn -0.000001 0.000000 -1.000000
vn 0.910871 0.412692 0.000000
vn 0.910871 0.412692 0.000000
vn 0.910872 0.412690 0.000000
vn 0.910872 0.412690 0.000000
vn 0.823939 -0.566678 0.000000
vn 0.823939 -0.566678 0.000000
vn 0.823938 -0.566679 0.000000
vn 0.823938 -0.566679 0.000000
vn 0.927217 0.374525 0.000000
vn 0.927217 0.374525 0.000000
vn 0.927217 0.374523 0.000000
vn 0.927217 0.374523 0.000000
vn 0.000000 0.000000 1.000000
vn 0.000000 0.000000 1.000000
vn -0.000002 0.000000 1.000000
vn -0.000001 0.000000 1.000000
vn -0.000002 0.000000 1.000000
vn -0.000002 0.000000 1.000000
vn 0.000000 0.000000 1.000000
vn 0.000000 0.000000 1.000000
vn 0.000000 1.000000 0.000000
vn 0.000000 1.000000 0.000000
vn 0.000009 0.000000 -1.000000
vn -0.000001 0.000000 -1.000000
vn -0.000001 0.000000 -1.000000
vn 0.000008 0.000000 -1.000000
vn 0.000008 0.000000 -1.000000
vn 0.000009 0.000000 -1.000000
vn 0.000000 0.000000 -1.000000
vn 0.000000 0.000000 -1.000000
vn 0.000000 -1.000000 0.000000
vn 0.000000 -1.000000 0.000000
vn 0.000000 -1.000000 0.000000
vn 0.000000 -1.000000 0.000000
vn 0.927216 0.374527 0.000000
vn 0.927216 0.374527 0.000000
vn -0.927032 -0.374982 0.000000
vn -0.927032 -0.374982 0.000000
vn -0.927032 -0.374982 0.000000
vn -0.927032 -0.374982 0.000000
vn -0.831421 0.555643 0.000000
vn -0.831421 0.555643 0.000000
vn -0.831421 0.555643 0.000000
vn -0.831421 0.555643 0.000000
vn 0.823939 -0.566679 0.000000
vn 0.823939 -0.566679 0.000000
vn -0.925499 -0.378751 0.000000
vn -0.925499 -0.378751 0.000000
vn -0.925499 -0.378751 0.000000
vn -0.925499 -0.378751 0.000000
vn 0.910871 0.412692 0.000000
vn 0.910871 0.412692 0.000000
vn 0.000000 1.000000 0.000000
vn 0.000000 1.000000 0.000000
vn -0.925498 -0.378751 0.000000
vn -0.925498 -0.378751 0.000000
vn -0.925498 -0.378751 0.000000
vn -0.925498 -0.378751 0.000000
vn 0.000000 1.000000 0.000000
vn 0.000000 1.000000 0.000000
vn 0.910874 0.412685 0.000000
vn 0.910874 0.412685 0.000000
vn -0.831417 0.555649 0.000000
vn -0.831417 0.555649 0.000000
vn -0.831417 0.555649 0.000000
vn -0.831417 0.555649 0.000000
vn 0.823935 -0.566685 0.000000
vn 0.823935 -0.566685 0.000000
vn 0.927218 0.374521 0.000000
vn 0.927218 0.374521 0.000000
vn 0.000000 -1.000000 0.000000
vn 0.000000 -1.000000 0.000000
vn -0.927035 -0.374976 0.000000
vn -0.927035 -0.374976 0.000000
vn -0.927035 -0.374976 0.000000
vn -0.927035 -0.374976 0.000000
s 1
g polySurface2549 polySurface2160
usemtl phong9SG
f 7/53/1 5/54/2 18/55/3 19/56/4
s 2
f 8/61/5 22/62/6 23/63/7 6/64/8
s 3
f 6/1/9 5/2/10 7/3/11 8/4/12
s off
f 3/5/13 4/6/14 5/2/15 6/1/16
s 4
f 4/33/17 3/34/18 24/35/19 17/36/20
s 5
f 1/43/21 20/44/22 21/45/23 2/46/24
s 1
f 4/57/25 17/58/26 18/55/3 5/54/2
s 2
f 23/63/7 24/67/27 3/68/28 6/64/8
s 1
f 1/59/29 7/53/1 19/56/4 20/60/30
s 3
f 8/4/12 7/3/11 1/7/31 2/8/32
s 2
f 2/65/33 21/66/34 22/62/6 8/61/5
s 6
f 15/9/35 10/10/36 11/11/37 16/12/38
s 7
f 10/10/39 9/15/40 12/16/41 11/11/42
s 8
f 9/15/43 14/20/44 13/21/45 12/16/46
s 9
usemtl phong4SG
f 25/85/47 26/86/48 27/87/49 28/88/50
f 29/89/51 28/88/50 27/87/49 30/90/52
f 31/91/53 29/89/51 30/90/52 32/92/54
s 5
usemtl phong9SG
f 21/45/23 20/44/22 15/47/55 16/48/56
s 10
f 34/69/57 33/70/58 35/71/59 36/72/60
f 37/73/61 34/69/57 36/72/60 38/74/62
f 38/74/62 39/75/63 40/76/64 37/73/61
s 4
f 17/36/20 24/35/19 13/37/65 14/38/66
f 17/36/20 14/38/66 26/41/67 25/42/68
s 8
f 14/20/44 9/15/43 27/19/69 26/23/70
s off
usemtl phong4SG
f 18/77/71 17/78/72 25/79/73 28/80/74
f 19/81/75 18/77/76 28/80/77 29/82/78
s 7
usemtl phong9SG
f 9/15/40 10/10/39 30/14/79 27/19/80
s off
usemtl phong4SG
f 20/83/81 19/81/82 29/82/83 31/84/84
s 6
usemtl phong9SG
f 10/10/36 15/9/35 32/13/85 30/14/86
s 5
f 15/47/55 20/44/22 31/49/87 32/50/88
s off
f 22/25/89 21/26/90 33/27/91 34/28/92
s 5
f 21/45/23 16/48/56 35/51/93 33/52/94
s 6
f 16/12/38 11/11/37 36/17/95 35/18/96
s off
f 23/29/97 22/25/98 34/28/99 37/30/100
s 7
f 11/11/42 12/16/41 38/22/101 36/17/102
s 8
f 12/16/46 13/21/45 39/24/103 38/22/104
s 4
f 13/37/65 24/35/19 40/39/105 39/40/106
s off
f 24/31/107 23/29/108 37/30/109 40/32/110
