# This file uses centimeters as units for non-parametric coordinates.

mtllib key-1.mtl
g default
v -0.133323 0.347164 2.234755
v -0.010646 0.347164 2.234755
v -0.133323 0.718824 2.234755
v -0.010646 0.718824 2.234755
v -0.133323 1.090482 2.234755
v -0.010646 1.090482 2.234755
v -0.133323 1.462140 2.234755
v -0.010646 1.462140 2.234755
v -0.133323 1.833799 2.234755
v -0.010646 1.833799 2.234755
v -0.133323 2.205457 2.234755
v -0.010646 2.205457 2.234755
v -0.133323 2.577116 1.596254
v -0.010646 2.577116 1.596254
v -0.133323 2.577115 0.957752
v -0.010646 2.577115 0.957752
v -0.133323 2.577115 0.319251
v -0.010646 2.577115 0.319251
v -0.133323 2.577115 -0.319251
v -0.010646 2.577115 -0.319251
v -0.133323 2.577115 -0.957752
v -0.010646 2.577115 -0.957752
v -0.133323 2.577115 -1.596254
v -0.010646 2.577115 -1.596254
v -0.133323 2.205457 -2.234755
v -0.010646 2.205457 -2.234755
v -0.133323 1.833799 -2.234755
v -0.010646 1.833799 -2.234755
v -0.133323 1.462141 -2.234755
v -0.010646 1.462141 -2.234755
v -0.133323 1.090482 -2.234755
v -0.010646 1.090482 -2.234755
v -0.133323 0.718823 -2.234755
v -0.010646 0.718823 -2.234755
v -0.133323 0.347165 -2.234755
v -0.010646 0.347165 -2.234755
v -0.133323 -0.024493 -1.596254
v -0.010646 -0.024493 -1.596253
v -0.133323 -0.024493 -0.957752
v -0.010646 -0.024493 -0.957752
v -0.133323 -0.024493 -0.319251
v -0.010646 -0.024493 -0.319251
v -0.133323 -0.024493 0.319251
v -0.010646 -0.024493 0.319251
v -0.133323 -0.024493 0.957752
v -0.010646 -0.024493 0.957752
v -0.133323 -0.024493 1.596254
v -0.010646 -0.024493 1.596254
v -0.010646 0.347165 -1.596253
v -0.010646 0.347165 -0.957752
v -0.010646 0.347165 -0.319251
v -0.010646 0.347165 0.319251
v -0.010646 0.347165 0.957752
v -0.010646 0.347166 1.596254
v -0.010646 0.718824 -1.596254
v -0.010646 0.718823 -0.957752
v -0.010646 0.718823 -0.319251
v -0.010646 0.718823 0.319251
v -0.010646 0.718823 0.957752
v -0.010646 0.718823 1.596254
v -0.010646 1.090482 -1.596254
v -0.010646 1.090482 -0.957752
v -0.010646 1.090482 -0.319251
v -0.010646 1.090482 0.319251
v -0.010646 1.090482 0.957752
v -0.010646 1.090482 1.596254
v -0.010646 1.462140 -1.596254
v -0.010646 1.462140 -0.957752
v -0.010646 1.462140 -0.319251
v -0.010646 1.462140 0.319251
v -0.010646 1.462140 0.957752
v -0.010646 1.462141 1.596254
v -0.010646 1.833799 -1.596253
v -0.010646 1.833799 -0.957752
v -0.010646 1.833799 -0.319251
v -0.010646 1.833799 0.319251
v -0.010646 1.833799 0.957752
v -0.010646 1.833799 1.596253
v -0.010646 2.205457 -1.596254
v -0.010646 2.205457 -0.957752
v -0.010646 2.205457 -0.319251
v -0.010646 2.205457 0.319251
v -0.010646 2.205457 0.957752
v -0.010646 2.205457 1.596253
v -0.133323 0.347165 -1.596253
v -0.133323 0.347165 -0.957752
v -0.133323 0.347165 -0.319251
v -0.133323 0.347165 0.319251
v -0.133323 0.347165 0.957752
v -0.133323 0.347166 1.596254
v -0.133323 0.718823 -1.596253
v -0.133323 0.718823 -0.957752
v -0.133323 0.718823 -0.319251
v -0.133323 0.718823 0.319251
v -0.133323 0.718823 0.957752
v -0.133323 0.718823 1.596254
v -0.133323 1.090482 -1.596254
v -0.133323 1.090482 -0.957752
v -0.133323 1.090482 -0.319251
v -0.133323 1.090482 0.319251
v -0.133323 1.090482 0.957752
v -0.133323 1.090482 1.596254
v -0.133323 1.462140 -1.596254
v -0.133323 1.462140 -0.957752
v -0.133323 1.462140 -0.319251
v -0.133323 1.462140 0.319251
v -0.133323 1.462140 0.957752
v -0.133323 1.462141 1.596254
v -0.133323 1.833799 -1.596253
v -0.133323 1.833799 -0.957752
v -0.133323 1.833799 -0.319251
v -0.133323 1.833799 0.319251
v -0.133323 1.833799 0.957752
v -0.133323 1.833799 1.596253
v -0.133323 2.205457 -1.596253
v -0.133323 2.205457 -0.957752
v -0.133323 2.205457 -0.319251
v -0.133323 2.205457 0.319251
v -0.133323 2.205457 0.957752
v -0.133323 2.205457 1.596253
v -0.133323 -0.024493 2.000637
v -0.133323 -0.013035 2.072983
v -0.133323 0.020219 2.138248
v -0.133323 0.072013 2.190043
v -0.133323 0.137277 2.223296
v -0.133323 0.209625 2.234755
v -0.010646 -0.024493 2.000637
v -0.010646 0.209625 2.234755
v -0.010646 0.137277 2.223296
v -0.010646 0.072013 2.190043
v -0.010646 0.020219 2.138248
v -0.010646 -0.013035 2.072983
v -0.133323 2.577115 2.000637
v -0.133323 2.342997 2.234754
v -0.133323 2.415344 2.223296
v -0.133323 2.480608 2.190042
v -0.133323 2.532403 2.138249
v -0.133323 2.565657 2.072984
v -0.010646 2.577115 2.000637
v -0.010646 2.565657 2.072984
v -0.010646 2.532403 2.138249
v -0.010646 2.480608 2.190042
v -0.010646 2.415344 2.223296
v -0.010646 2.342997 2.234754
v -0.133323 2.342998 -2.234755
v -0.133323 2.577115 -2.000637
v -0.133323 2.565657 -2.072983
v -0.133323 2.532403 -2.138248
v -0.133323 2.480609 -2.190043
v -0.133323 2.415343 -2.223297
v -0.010646 2.342998 -2.234755
v -0.010646 2.415343 -2.223297
v -0.010646 2.480609 -2.190043
v -0.010646 2.532403 -2.138248
v -0.010646 2.565657 -2.072983
v -0.010646 2.577115 -2.000637
v -0.133323 -0.024493 -2.000637
v -0.133323 0.209624 -2.234755
v -0.133323 0.137278 -2.223296
v -0.133323 0.072013 -2.190042
v -0.133323 0.020220 -2.138248
v -0.133323 -0.013035 -2.072983
v -0.010646 -0.024493 -2.000637
v -0.010646 -0.013035 -2.072983
v -0.010646 0.020220 -2.138248
v -0.010646 0.072013 -2.190042
v -0.010646 0.137278 -2.223296
v -0.010646 0.209624 -2.234755
vt 0.446996 0.988454
vt 0.446996 0.988454
vt 0.479280 0.988454
vt 0.479280 0.988454
vt 0.566517 0.988454
vt 0.566517 0.988454
vt 0.653753 0.988454
vt 0.653753 0.988454
vt 0.740990 0.988454
vt 0.740990 0.988454
vt 0.828226 0.988454
vt 0.828226 0.988454
vt 0.915462 0.988454
vt 0.915462 0.988454
vt 0.947746 0.988454
vt 0.947746 0.988454
vt 1.002699 0.937282
vt 1.002699 0.937282
vt 1.002699 0.848895
vt 1.002699 0.848895
vt 1.002699 0.709337
vt 1.002699 0.709337
vt 1.002699 0.569779
vt 1.002699 0.569779
vt 1.002699 0.430221
vt 1.002699 0.430221
vt 1.002699 0.290663
vt 1.002699 0.290663
vt 1.002699 0.151105
vt 1.002699 0.151105
vt 1.002699 0.062718
vt 1.002699 0.062718
vt 0.947746 0.011547
vt 0.947746 0.011547
vt 0.915462 0.011547
vt 0.915462 0.011547
vt 0.828226 0.011547
vt 0.828226 0.011547
vt 0.740990 0.011547
vt 0.740990 0.011547
vt 0.653753 0.011547
vt 0.653753 0.011547
vt 0.566517 0.011547
vt 0.566517 0.011547
vt 0.479280 0.011547
vt 0.479280 0.011547
vt 0.446996 0.011547
vt 0.446996 0.011547
vt 0.392044 0.062718
vt 0.392044 0.062718
vt 0.392044 0.151105
vt 0.392044 0.151105
vt 0.392044 0.290663
vt 0.392044 0.290663
vt 0.392044 0.430221
vt 0.392044 0.430221
vt 0.392044 0.569779
vt 0.392044 0.569779
vt 0.392044 0.709337
vt 0.392044 0.709337
vt 0.392044 0.848895
vt 0.392044 0.848895
vt 0.392044 0.937282
vt 0.392044 0.937282
vt 0.479280 0.151105
vt 0.479280 0.290663
vt 0.479280 0.430221
vt 0.479280 0.569779
vt 0.479280 0.709337
vt 0.479280 0.848895
vt 0.566517 0.151105
vt 0.566517 0.290663
vt 0.566517 0.430221
vt 0.566517 0.569779
vt 0.566517 0.709337
vt 0.566517 0.848895
vt 0.653753 0.151105
vt 0.653753 0.290663
vt 0.653753 0.430221
vt 0.653753 0.569779
vt 0.653753 0.709337
vt 0.653753 0.848895
vt 0.740990 0.151105
vt 0.740990 0.290663
vt 0.740990 0.430221
vt 0.740989 0.569779
vt 0.740989 0.709337
vt 0.740990 0.848895
vt 0.828226 0.151105
vt 0.828226 0.290663
vt 0.828226 0.430221
vt 0.828226 0.569779
vt 0.828226 0.709337
vt 0.828226 0.848895
vt 0.915462 0.151105
vt 0.915462 0.290663
vt 0.915462 0.430221
vt 0.915462 0.569779
vt 0.915462 0.709337
vt 0.915462 0.848895
vt 0.479280 0.290663
vt 0.479280 0.151105
vt 0.479280 0.430221
vt 0.479280 0.569779
vt 0.479280 0.709337
vt 0.479280 0.848895
vt 0.566517 0.151105
vt 0.566517 0.290663
vt 0.566517 0.430221
vt 0.566517 0.569779
vt 0.566517 0.709337
vt 0.566517 0.848895
vt 0.653753 0.151105
vt 0.653753 0.290663
vt 0.653753 0.430221
vt 0.653753 0.569779
vt 0.653753 0.709337
vt 0.653753 0.848895
vt 0.740990 0.151105
vt 0.740990 0.290663
vt 0.740990 0.430221
vt 0.740989 0.569779
vt 0.740989 0.709337
vt 0.740990 0.848895
vt 0.828226 0.151105
vt 0.828226 0.290663
vt 0.828226 0.430221
vt 0.828226 0.569779
vt 0.828226 0.709337
vt 0.828226 0.848895
vt 0.915462 0.151105
vt 0.915462 0.290663
vt 0.915462 0.430221
vt 0.915462 0.569779
vt 0.915462 0.709337
vt 0.915462 0.848895
vt 0.430015 0.985949
vt 0.430015 0.985949
vt 0.414696 0.978681
vt 0.414696 0.978681
vt 0.402539 0.967360
vt 0.402539 0.967360
vt 0.394733 0.953095
vt 0.394733 0.953095
vt 1.000009 0.953095
vt 1.000009 0.953095
vt 0.992204 0.967360
vt 0.992204 0.967360
vt 0.980046 0.978681
vt 0.980046 0.978681
vt 0.964727 0.985949
vt 0.964727 0.985949
vt 0.964727 0.014051
vt 0.964727 0.014051
vt 0.980046 0.021320
vt 0.980046 0.021320
vt 0.992204 0.032640
vt 0.992204 0.032640
vt 1.000009 0.046905
vt 1.000009 0.046905
vt 0.394733 0.046905
vt 0.394733 0.046905
vt 0.402539 0.032640
vt 0.402539 0.032640
vt 0.414696 0.021320
vt 0.414696 0.021320
vt 0.430015 0.014051
vt 0.430015 0.014051
vn 0.000000 -0.054515 0.998513
vn 0.000000 -0.054515 0.998513
vn 0.000000 0.000000 1.000000
vn 0.000000 0.000000 1.000000
vn 0.000000 0.000000 1.000000
vn 0.000000 0.000000 1.000000
vn 0.000000 -0.000000 1.000000
vn 0.000000 -0.000000 1.000000
vn 0.000000 -0.000001 1.000000
vn 0.000000 -0.000001 1.000000
vn 0.000000 0.000000 1.000000
vn 0.000000 0.000000 1.000000
vn 0.000000 0.000002 1.000000
vn 0.000000 0.000002 1.000000
vn 0.000000 0.054516 0.998513
vn 0.000000 0.054516 0.998513
vn 0.000000 0.999711 0.024030
vn 0.000000 0.999711 0.024030
vn 0.000000 1.000000 0.000000
vn 0.000000 1.000000 0.000000
vn 0.000000 1.000000 -0.000000
vn 0.000000 1.000000 -0.000000
vn 0.000000 1.000000 -0.000000
vn 0.000000 1.000000 -0.000000
vn 0.000000 1.000000 0.000000
vn 0.000000 1.000000 0.000000
vn -0.000001 1.000000 0.000000
vn -0.000001 1.000000 0.000000
vn -0.000003 1.000000 -0.000001
vn -0.000003 1.000000 -0.000001
vn -0.000002 0.999711 -0.024029
vn -0.000002 0.999711 -0.024029
vn 0.000000 0.054511 -0.998513
vn 0.000000 0.054511 -0.998513
vn 0.000000 0.000001 -1.000000
vn 0.000000 0.000001 -1.000000
vn 0.000000 0.000000 -1.000000
vn 0.000000 0.000000 -1.000000
vn 0.000000 0.000000 -1.000000
vn 0.000000 0.000000 -1.000000
vn 0.000000 0.000000 -1.000000
vn 0.000000 0.000000 -1.000000
vn 0.000000 0.000000 -1.000000
vn 0.000000 0.000000 -1.000000
vn 0.000000 -0.000001 -1.000000
vn 0.000000 -0.000001 -1.000000
vn 0.000000 -0.054516 -0.998513
vn 0.000000 -0.054516 -0.998513
vn 0.000000 -0.999711 -0.024028
vn 0.000000 -0.999711 -0.024028
vn 0.000000 -1.000000 0.000000
vn 0.000000 -1.000000 0.000000
vn 0.000000 -1.000000 0.000000
vn 0.000000 -1.000000 0.000000
vn 0.000000 -1.000000 0.000000
vn 0.000000 -1.000000 0.000000
vn 0.000000 -1.000000 0.000000
vn 0.000000 -1.000000 0.000000
vn 0.000000 -1.000000 -0.000000
vn 0.000000 -1.000000 -0.000000
vn 0.000000 -1.000000 0.000001
vn 0.000000 -1.000000 0.000001
vn 0.000000 -0.999711 0.024029
vn 0.000000 -0.999711 0.024029
vn 1.000000 -0.000000 0.000000
vn 1.000000 0.000000 0.000000
vn 1.000000 0.000000 0.000000
vn 1.000000 -0.000000 0.000000
vn 1.000000 -0.000000 0.000000
vn 1.000000 0.000000 0.000000
vn 1.000000 0.000000 0.000000
vn 1.000000 -0.000000 0.000000
vn 1.000000 0.000000 0.000000
vn 1.000000 -0.000000 0.000000
vn 1.000000 0.000000 0.000000
vn 1.000000 0.000000 0.000000
vn 1.000000 0.000000 0.000000
vn 1.000000 -0.000000 0.000000
vn 1.000000 -0.000000 0.000000
vn 1.000000 -0.000000 0.000000
vn 1.000000 0.000000 0.000000
vn 1.000000 -0.000000 0.000000
vn 1.000000 -0.000000 0.000000
vn 1.000000 -0.000000 0.000000
vn 1.000000 0.000000 0.000000
vn 1.000000 -0.000000 0.000000
vn 1.000000 0.000000 0.000000
vn 1.000000 0.000000 0.000000
vn 1.000000 0.000000 0.000000
vn 1.000000 -0.000000 0.000000
vn 1.000000 -0.000000 0.000000
vn 1.000000 0.000000 0.000000
vn 1.000000 0.000000 0.000000
vn 1.000000 0.000000 0.000000
vn 1.000000 0.000000 0.000000
vn 1.000000 0.000000 0.000000
vn 1.000000 0.000000 0.000000
vn 1.000000 -0.000000 0.000000
vn 1.000000 0.000000 0.000000
vn 1.000000 -0.000000 0.000000
vn 1.000000 0.000000 0.000000
vn 1.000000 0.000000 0.000000
vn 1.000000 -0.000000 0.000000
vn 1.000000 0.000000 0.000000
vn 1.000000 0.000000 0.000000
vn 1.000000 -0.000000 0.000000
vn 1.000000 -0.000000 0.000000
vn 1.000000 -0.000000 0.000000
vn 1.000000 -0.000000 0.000000
vn 1.000000 0.000000 0.000000
vn 1.000000 0.000000 0.000000
vn 1.000000 0.000000 0.000000
vn 1.000000 -0.000000 0.000000
vn 1.000000 -0.000000 0.000000
vn 1.000000 -0.000000 0.000000
vn 1.000000 0.000000 0.000000
vn 1.000000 -0.000000 0.000000
vn 1.000000 -0.000000 0.000000
vn 1.000000 0.000000 0.000000
vn 1.000000 -0.000000 0.000000
vn 1.000000 -0.000000 0.000000
vn 1.000000 -0.000000 0.000000
vn 1.000000 0.000000 0.000000
vn 1.000000 -0.000000 0.000000
vn -1.000000 -0.000000 0.000000
vn -1.000000 -0.000000 0.000000
vn -1.000000 -0.000000 0.000000
vn -1.000000 -0.000000 0.000000
vn -1.000000 0.000000 0.000000
vn -1.000000 0.000000 0.000000
vn -1.000000 0.000000 0.000000
vn -1.000000 0.000000 0.000000
vn -1.000000 -0.000000 0.000000
vn -1.000000 -0.000000 0.000000
vn -1.000000 -0.000000 0.000000
vn -1.000000 -0.000000 0.000000
vn -1.000000 -0.000000 0.000000
vn -1.000000 0.000000 0.000000
vn -1.000000 0.000000 0.000000
vn -1.000000 0.000000 0.000000
vn -1.000000 0.000000 0.000000
vn -1.000000 0.000000 0.000000
vn -1.000000 0.000000 0.000000
vn -1.000000 0.000000 0.000000
vn -1.000000 -0.000000 0.000000
vn -1.000000 0.000000 0.000000
vn -1.000000 0.000000 0.000000
vn -1.000000 0.000000 0.000000
vn -1.000000 -0.000000 0.000000
vn -1.000000 -0.000000 0.000000
vn -1.000000 0.000000 0.000000
vn -1.000000 0.000000 0.000000
vn -1.000000 -0.000000 0.000000
vn -1.000000 -0.000000 0.000000
vn -1.000000 -0.000000 0.000000
vn -1.000000 0.000000 0.000000
vn -1.000000 -0.000000 0.000000
vn -1.000000 0.000000 0.000000
vn -1.000000 0.000000 0.000000
vn -1.000000 -0.000000 0.000000
vn -1.000000 0.000000 0.000000
vn -1.000000 0.000000 0.000000
vn -1.000000 -0.000000 0.000000
vn -1.000000 -0.000000 0.000000
vn -1.000000 -0.000000 0.000000
vn -1.000000 -0.000000 0.000000
vn -1.000000 0.000000 0.000000
vn -1.000000 0.000000 0.000000
vn -1.000000 0.000000 0.000000
vn -1.000000 0.000000 0.000000
vn -1.000000 0.000000 0.000000
vn -1.000000 0.000000 0.000000
vn -1.000000 0.000000 0.000000
vn -1.000000 0.000000 0.000000
vn -1.000000 0.000000 0.000000
vn -1.000000 0.000000 0.000000
vn -1.000000 0.000000 0.000000
vn -1.000000 0.000000 0.000000
vn -1.000000 0.000000 0.000000
vn -1.000000 0.000000 0.000000
vn -1.000000 0.000000 0.000000
vn -1.000000 0.000000 0.000000
vn -1.000000 0.000000 0.000000
vn -1.000000 0.000000 0.000000
vn 0.000000 -0.309013 0.951058
vn 0.000000 -0.309013 0.951058
vn 0.000000 -0.587786 0.809016
vn 0.000000 -0.587786 0.809016
vn 0.000000 -0.809019 0.587782
vn 0.000000 -0.809019 0.587782
vn 0.000000 -0.951058 0.309011
vn 0.000000 -0.951058 0.309011
vn 0.000000 0.951057 0.309017
vn 0.000000 0.951057 0.309017
vn 0.000000 0.809016 0.587787
vn 0.000000 0.809016 0.587787
vn 0.000000 0.587780 0.809021
vn 0.000000 0.587780 0.809021
vn 0.000000 0.309014 0.951057
vn 0.000000 0.309014 0.951057
vn 0.000000 0.309015 -0.951057
vn 0.000000 0.309015 -0.951057
vn 0.000000 0.587784 -0.809018
vn 0.000000 0.587784 -0.809018
vn 0.000000 0.809018 -0.587783
vn 0.000000 0.809018 -0.587783
vn 0.000000 0.951057 -0.309015
vn 0.000000 0.951057 -0.309015
vn 0.000000 -0.951056 -0.309017
vn 0.000000 -0.951056 -0.309017
vn 0.000000 -0.809017 -0.587785
vn 0.000000 -0.809017 -0.587785
vn 0.000000 -0.587782 -0.809019
vn 0.000000 -0.587782 -0.809019
vn 0.000000 -0.309016 -0.951057
vn 0.000000 -0.309016 -0.951057
vn -1.000000 -0.000000 0.000000
vn -1.000000 -0.000000 0.000000
vn -1.000000 -0.000000 0.000000
vn -1.000000 -0.000000 0.000000
vn -1.000000 -0.000000 0.000000
vn -1.000000 -0.000000 0.000000
vn 1.000000 0.000000 0.000000
vn 1.000000 0.000000 0.000000
vn 1.000000 0.000000 0.000000
vn 1.000000 0.000000 0.000000
vn 1.000000 0.000000 0.000000
vn 1.000000 0.000000 0.000000
vn -1.000000 0.000000 0.000000
vn -1.000000 0.000000 0.000000
vn -1.000000 0.000000 0.000000
vn -1.000000 0.000000 0.000000
vn -1.000000 0.000000 0.000000
vn -1.000000 0.000000 0.000000
vn 1.000000 -0.000000 0.000000
vn 1.000000 -0.000000 0.000000
vn 1.000000 -0.000000 0.000000
vn 1.000000 -0.000000 0.000000
vn 1.000000 -0.000000 0.000000
vn 1.000000 -0.000000 0.000000
vn -1.000000 0.000000 0.000000
vn -1.000000 0.000000 0.000000
vn -1.000000 0.000000 0.000000
vn -1.000000 0.000000 0.000000
vn -1.000000 0.000000 0.000000
vn -1.000000 0.000000 0.000000
vn 1.000000 0.000000 0.000000
vn 1.000000 0.000000 0.000000
vn 1.000000 0.000000 0.000000
vn 1.000000 0.000000 0.000000
vn 1.000000 0.000000 0.000000
vn 1.000000 0.000000 0.000000
vn -1.000000 -0.000000 0.000000
vn -1.000000 -0.000000 0.000000
vn -1.000000 -0.000000 0.000000
vn -1.000000 -0.000000 0.000000
vn -1.000000 -0.000000 0.000000
vn -1.000000 -0.000000 0.000000
vn 1.000000 0.000000 0.000000
vn 1.000000 0.000000 0.000000
vn 1.000000 0.000000 0.000000
vn 1.000000 0.000000 0.000000
vn 1.000000 0.000000 0.000000
vn 1.000000 0.000000 0.000000
s 1
g pCube1
usemtl phong2SG
f 126/1/1 128/2/2 2/3/3 1/4/4
f 1/4/4 2/3/3 4/5/5 3/6/6
f 3/6/6 4/5/5 6/7/7 5/8/8
f 5/8/8 6/7/7 8/9/9 7/10/10
f 7/10/10 8/9/9 10/11/11 9/12/12
f 9/12/12 10/11/11 12/13/13 11/14/14
f 11/14/14 12/13/13 144/15/15 134/16/16
f 133/17/17 139/18/18 14/19/19 13/20/20
f 13/20/20 14/19/19 16/21/21 15/22/22
f 15/22/22 16/21/21 18/23/23 17/24/24
f 17/24/24 18/23/23 20/25/25 19/26/26
f 19/26/26 20/25/25 22/27/27 21/28/28
f 21/28/28 22/27/27 24/29/29 23/30/30
f 23/30/30 24/29/29 156/31/31 146/32/32
f 145/33/33 151/34/34 26/35/35 25/36/36
f 25/36/36 26/35/35 28/37/37 27/38/38
f 27/38/38 28/37/37 30/39/39 29/40/40
f 29/40/40 30/39/39 32/41/41 31/42/42
f 31/42/42 32/41/41 34/43/43 33/44/44
f 33/44/44 34/43/43 36/45/45 35/46/46
f 35/46/46 36/45/45 168/47/47 158/48/48
f 157/49/49 163/50/50 38/51/51 37/52/52
f 37/52/52 38/51/51 40/53/53 39/54/54
f 39/54/54 40/53/53 42/55/55 41/56/56
f 41/56/56 42/55/55 44/57/57 43/58/58
f 43/58/58 44/57/57 46/59/59 45/60/60
f 45/60/60 46/59/59 48/61/61 47/62/62
f 47/62/62 48/61/61 127/63/63 121/64/64
s 5
f 40/53/65 38/51/66 49/65/67 50/66/68
f 42/55/69 40/53/65 50/66/68 51/67/70
f 44/57/71 42/55/69 51/67/70 52/68/72
f 46/59/73 44/57/71 52/68/72 53/69/74
f 48/61/75 46/59/73 53/69/74 54/70/76
f 49/65/67 36/45/77 34/43/78 55/71/79
f 50/66/68 49/65/67 55/71/79 56/72/80
f 51/67/70 50/66/68 56/72/80 57/73/81
f 52/68/72 51/67/70 57/73/81 58/74/82
f 53/69/74 52/68/72 58/74/82 59/75/83
f 54/70/76 53/69/74 59/75/83 60/76/84
f 2/3/85 54/70/76 60/76/84 4/5/86
f 55/71/79 34/43/78 32/41/87 61/77/88
f 56/72/80 55/71/79 61/77/88 62/78/89
f 57/73/81 56/72/80 62/78/89 63/79/90
f 58/74/82 57/73/81 63/79/90 64/80/91
f 59/75/83 58/74/82 64/80/91 65/81/92
f 60/76/84 59/75/83 65/81/92 66/82/93
f 4/5/86 60/76/84 66/82/93 6/7/94
f 61/77/88 32/41/87 30/39/95 67/83/96
f 62/78/89 61/77/88 67/83/96 68/84/97
f 63/79/90 62/78/89 68/84/97 69/85/98
f 64/80/91 63/79/90 69/85/98 70/86/99
f 65/81/92 64/80/91 70/86/99 71/87/100
f 66/82/93 65/81/92 71/87/100 72/88/101
f 6/7/94 66/82/93 72/88/101 8/9/102
f 67/83/96 30/39/95 28/37/103 73/89/104
f 68/84/97 67/83/96 73/89/104 74/90/105
f 69/85/98 68/84/97 74/90/105 75/91/106
f 70/86/99 69/85/98 75/91/106 76/92/107
f 71/87/100 70/86/99 76/92/107 77/93/108
f 72/88/101 71/87/100 77/93/108 78/94/109
f 8/9/102 72/88/101 78/94/109 10/11/110
f 73/89/104 28/37/103 26/35/111 79/95/112
f 74/90/105 73/89/104 79/95/112 80/96/113
f 75/91/106 74/90/105 80/96/113 81/97/114
f 76/92/107 75/91/106 81/97/114 82/98/115
f 77/93/108 76/92/107 82/98/115 83/99/116
f 78/94/109 77/93/108 83/99/116 84/100/117
f 10/11/110 78/94/109 84/100/117 12/13/118
f 80/96/113 79/95/112 24/29/119 22/27/120
f 81/97/114 80/96/113 22/27/120 20/25/121
f 82/98/115 81/97/114 20/25/121 18/23/122
f 83/99/116 82/98/115 18/23/122 16/21/123
f 84/100/117 83/99/116 16/21/123 14/19/124
s 6
f 37/52/125 39/54/126 86/101/127 85/102/128
f 39/54/126 41/56/129 87/103/130 86/101/127
f 41/56/129 43/58/131 88/104/132 87/103/130
f 43/58/131 45/60/133 89/105/134 88/104/132
f 45/60/133 47/62/135 90/106/136 89/105/134
f 35/46/137 85/102/128 91/107/138 33/44/139
f 85/102/128 86/101/127 92/108/140 91/107/138
f 86/101/127 87/103/130 93/109/141 92/108/140
f 87/103/130 88/104/132 94/110/142 93/109/141
f 88/104/132 89/105/134 95/111/143 94/110/142
f 89/105/134 90/106/136 96/112/144 95/111/143
f 90/106/136 1/4/145 3/6/146 96/112/144
f 33/44/139 91/107/138 97/113/147 31/42/148
f 91/107/138 92/108/140 98/114/149 97/113/147
f 92/108/140 93/109/141 99/115/150 98/114/149
f 93/109/141 94/110/142 100/116/151 99/115/150
f 94/110/142 95/111/143 101/117/152 100/116/151
f 95/111/143 96/112/144 102/118/153 101/117/152
f 96/112/144 3/6/146 5/8/154 102/118/153
f 31/42/148 97/113/147 103/119/155 29/40/156
f 97/113/147 98/114/149 104/120/157 103/119/155
f 98/114/149 99/115/150 105/121/158 104/120/157
f 99/115/150 100/116/151 106/122/159 105/121/158
f 100/116/151 101/117/152 107/123/160 106/122/159
f 101/117/152 102/118/153 108/124/161 107/123/160
f 102/118/153 5/8/154 7/10/162 108/124/161
f 29/40/156 103/119/155 109/125/163 27/38/164
f 103/119/155 104/120/157 110/126/165 109/125/163
f 104/120/157 105/121/158 111/127/166 110/126/165
f 105/121/158 106/122/159 112/128/167 111/127/166
f 106/122/159 107/123/160 113/129/168 112/128/167
f 107/123/160 108/124/161 114/130/169 113/129/168
f 108/124/161 7/10/162 9/12/170 114/130/169
f 27/38/164 109/125/163 115/131/171 25/36/172
f 109/125/163 110/126/165 116/132/173 115/131/171
f 110/126/165 111/127/166 117/133/174 116/132/173
f 111/127/166 112/128/167 118/134/175 117/133/174
f 112/128/167 113/129/168 119/135/176 118/134/175
f 113/129/168 114/130/169 120/136/177 119/135/176
f 114/130/169 9/12/170 11/14/178 120/136/177
f 115/131/171 116/132/173 21/28/179 23/30/180
f 116/132/173 117/133/174 19/26/181 21/28/179
f 117/133/174 118/134/175 17/24/182 19/26/181
f 118/134/175 119/135/176 15/22/183 17/24/182
f 119/135/176 120/136/177 13/20/184 15/22/183
s 1
f 126/1/1 125/137/185 129/138/186 128/2/2
f 125/137/185 124/139/187 130/140/188 129/138/186
f 124/139/187 123/141/189 131/142/190 130/140/188
f 123/141/189 122/143/191 132/144/192 131/142/190
f 122/143/191 121/64/64 127/63/63 132/144/192
f 133/17/17 138/145/193 140/146/194 139/18/18
f 138/145/193 137/147/195 141/148/196 140/146/194
f 137/147/195 136/149/197 142/150/198 141/148/196
f 136/149/197 135/151/199 143/152/200 142/150/198
f 135/151/199 134/16/16 144/15/15 143/152/200
f 145/33/33 150/153/201 152/154/202 151/34/34
f 150/153/201 149/155/203 153/156/204 152/154/202
f 149/155/203 148/157/205 154/158/206 153/156/204
f 148/157/205 147/159/207 155/160/208 154/158/206
f 147/159/207 146/32/32 156/31/31 155/160/208
f 157/49/49 162/161/209 164/162/210 163/50/50
f 162/161/209 161/163/211 165/164/212 164/162/210
f 161/163/211 160/165/213 166/166/214 165/164/212
f 160/165/213 159/167/215 167/168/216 166/166/214
f 159/167/215 158/48/48 168/47/47 167/168/216
s 6
f 1/4/145 90/106/136 47/62/135 121/64/217 122/143/218 123/141/219 124/139/220 125/137/221 126/1/222
s 5
f 127/63/223 48/61/75 54/70/76 2/3/85 128/2/224 129/138/225 130/140/226 131/142/227 132/144/228
s 6
f 133/17/229 13/20/184 120/136/177 11/14/178 134/16/230 135/151/231 136/149/232 137/147/233 138/145/234
s 5
f 12/13/118 84/100/117 14/19/124 139/18/235 140/146/236 141/148/237 142/150/238 143/152/239 144/15/240
s 6
f 145/33/241 25/36/172 115/131/171 23/30/180 146/32/242 147/159/243 148/157/244 149/155/245 150/153/246
s 5
f 24/29/119 79/95/112 26/35/111 151/34/247 152/154/248 153/156/249 154/158/250 155/160/251 156/31/252
s 6
f 157/49/253 37/52/125 85/102/128 35/46/137 158/48/254 159/167/255 160/165/256 161/163/257 162/161/258
s 5
f 36/45/77 49/65/67 38/51/66 163/50/259 164/162/260 165/164/261 166/166/262 167/168/263 168/47/264
